<svg xmlns="http://www.w3.org/2000/svg" width="1600" height="900"><rect width="100%" height="100%" fill="white"/><text x="340" y="45" font-family="Arial" font-size="28" font-weight="bold">Capital-normalised cumulative P&amp;L â€” $1m initial capital â€” 10-day horizon</text><line x1="340" y1="790.0" x2="1500" y2="790.0" stroke="#555"/><rect x="340.0" y="90.0" width="770.4" height="30.3" fill="#4C78A8"/><text x="328" y="111.2" text-anchor="end" font-family="Arial" font-size="16">GARCH</text><text x="1118.4" y="111.2" font-family="Arial" font-size="15">12.80%</text><rect x="340.0" y="136.7" width="555.7" height="30.3" fill="#F58518"/><text x="328" y="157.9" text-anchor="end" font-family="Arial" font-size="16">ESG-GARCH</text><text x="903.7" y="157.9" font-family="Arial" font-size="15">9.24%</text><rect x="340.0" y="183.3" width="644.2" height="30.3" fill="#54A24B"/><text x="328" y="204.6" text-anchor="end" font-family="Arial" font-size="16">ESG-GARCH(E)</text><text x="992.2" y="204.6" font-family="Arial" font-size="15">10.71%</text><rect x="340.0" y="230.0" width="603.0" height="30.3" fill="#E45756"/><text x="328" y="251.2" text-anchor="end" font-family="Arial" font-size="16">ESG-GARCH(G)</text><text x="951.0" y="251.2" font-family="Arial" font-size="15">10.02%</text><rect x="340.0" y="276.7" width="624.6" height="30.3" fill="#72B7B2"/><text x="328" y="297.9" text-anchor="end" font-family="Arial" font-size="16">ESG-GARCH(S)</text><text x="972.6" y="297.9" font-family="Arial" font-size="15">10.38%</text><rect x="340.0" y="323.3" width="796.6" height="30.3" fill="#B279A2"/><text x="328" y="344.6" text-anchor="end" font-family="Arial" font-size="16">GJR-GARCH</text><text x="1144.6" y="344.6" font-family="Arial" font-size="15">13.24%</text><rect x="340.0" y="370.0" width="697.1" height="30.3" fill="#FF9DA6"/><text x="328" y="391.2" text-anchor="end" font-family="Arial" font-size="16">ESG-GJR-GARCH</text><text x="1045.1" y="391.2" font-family="Arial" font-size="15">11.59%</text><rect x="340.0" y="416.7" width="730.3" height="30.3" fill="#9D755D"/><text x="328" y="437.9" text-anchor="end" font-family="Arial" font-size="16">ESG-GJR-GARCH(E)</text><text x="1078.3" y="437.9" font-family="Arial" font-size="15">12.14%</text><rect x="340.0" y="463.3" width="738.1" height="30.3" fill="#BAB0AC"/><text x="328" y="484.6" text-anchor="end" font-family="Arial" font-size="16">ESG-GJR-GARCH(G)</text><text x="1086.1" y="484.6" font-family="Arial" font-size="15">12.27%</text><rect x="340.0" y="510.0" width="721.9" height="30.3" fill="#59A14F"/><text x="328" y="531.2" text-anchor="end" font-family="Arial" font-size="16">ESG-GJR-GARCH(S)</text><text x="1069.9" y="531.2" font-family="Arial" font-size="15">12.00%</text><rect x="340.0" y="556.7" width="1160.0" height="30.3" fill="#EDC948"/><text x="328" y="577.9" text-anchor="end" font-family="Arial" font-size="16">EGARCH</text><text x="1508.0" y="577.9" font-family="Arial" font-size="15">19.28%</text><rect x="340.0" y="603.3" width="572.8" height="30.3" fill="#B07AA1"/><text x="328" y="624.6" text-anchor="end" font-family="Arial" font-size="16">ESG-EGARCH</text><text x="920.8" y="624.6" font-family="Arial" font-size="15">9.52%</text><rect x="340.0" y="650.0" width="696.5" height="30.3" fill="#76B7B2"/><text x="328" y="671.2" text-anchor="end" font-family="Arial" font-size="16">ESG-EGARCH(E)</text><text x="1044.5" y="671.2" font-family="Arial" font-size="15">11.58%</text><rect x="340.0" y="696.7" width="621.9" height="30.3" fill="#F28E2B"/><text x="328" y="717.9" text-anchor="end" font-family="Arial" font-size="16">ESG-EGARCH(G)</text><text x="969.9" y="717.9" font-family="Arial" font-size="15">10.34%</text><rect x="340.0" y="743.3" width="714.9" height="30.3" fill="#E15759"/><text x="328" y="764.6" text-anchor="end" font-family="Arial" font-size="16">ESG-EGARCH(S)</text><text x="1062.9" y="764.6" font-family="Arial" font-size="15">11.88%</text><text x="1500" y="865" text-anchor="end" font-family="Arial" font-size="15">Cumulative P&amp;L / $1m initial capital</text></svg>