<svg xmlns="http://www.w3.org/2000/svg" width="1500" height="900"><rect width="100%" height="100%" fill="white"/><text x="300" y="50" font-family="Arial" font-size="28" font-weight="bold">Paired ESG-minus-benchmark P&amp;L differences â€” baseline |Z| â‰¥ 1.5</text><line x1="300" y1="440.0" x2="1420" y2="440.0" stroke="#333"/><rect x="480" y="440.0" width="22" height="0.5" fill="#4C78A8"/><rect x="508" y="440.0" width="22" height="0.0" fill="#E45756"/><rect x="560" y="440.0" width="22" height="1.7" fill="#4C78A8"/><rect x="588" y="438.7" width="22" height="1.3" fill="#E45756"/><rect x="640" y="436.8" width="22" height="3.2" fill="#4C78A8"/><rect x="668" y="440.0" width="22" height="22.1" fill="#E45756"/><text x="560" y="840" text-anchor="middle" font-family="Arial" font-size="18">GARCH</text><rect x="860" y="439.0" width="22" height="1.0" fill="#4C78A8"/><rect x="888" y="436.5" width="22" height="3.5" fill="#E45756"/><rect x="940" y="440.0" width="22" height="0.7" fill="#4C78A8"/><rect x="968" y="431.6" width="22" height="8.4" fill="#E45756"/><rect x="1020" y="437.0" width="22" height="3.0" fill="#4C78A8"/><rect x="1048" y="438.6" width="22" height="1.4" fill="#E45756"/><text x="940" y="840" text-anchor="middle" font-family="Arial" font-size="18">GJR-GARCH</text><rect x="1240" y="439.9" width="22" height="0.1" fill="#4C78A8"/><rect x="1268" y="436.8" width="22" height="3.2" fill="#E45756"/><rect x="1320" y="440.0" width="22" height="0.1" fill="#4C78A8"/><rect x="1348" y="429.3" width="22" height="10.7" fill="#E45756"/><rect x="1400" y="440.0" width="22" height="2.1" fill="#4C78A8"/><rect x="1428" y="437.6" width="22" height="2.4" fill="#E45756"/><text x="1320" y="840" text-anchor="middle" font-family="Arial" font-size="18">EGARCH</text><text x="1420" y="875" text-anchor="end" font-family="Arial" font-size="15">Mean paired P&amp;L difference (USD per trade)</text></svg>